<svg width="83" height="84" viewBox="0 0 83 84" fill="none" xmlns="http://www.w3.org/2000/svg">
<path d="M54.0638 9.66406V30.0689H48.0153V17.9755L33.5351 35.3933H28.9444L14.4089 17.9755V48.1082L8.33748 53.1934L8.32031 47.7183V9.66406H14.4394L31.2226 29.3852L48.0191 9.66406H54.0638Z" fill="white"/>
<path d="M73.7785 55.1631C73.7792 56.5483 73.6919 57.9322 73.5171 59.3066C72.784 64.4735 70.2598 69.23 66.3741 72.7667C62.4884 76.3035 57.4812 78.402 52.2046 78.7052C46.928 79.0085 41.7079 77.4976 37.4327 74.4298C33.1575 71.362 30.0912 66.9268 28.7556 61.8788C27.42 56.8308 27.8977 51.482 30.1072 46.7424C32.3168 42.0029 36.1218 38.1655 40.8748 35.8832C45.6278 33.6009 51.0351 33.0147 56.1766 34.2243C61.3181 35.434 65.8761 38.3647 69.0752 42.5179L64.1467 46.1152C61.8139 43.1201 58.5112 41.005 54.7896 40.1229C51.0679 39.2408 47.1524 39.645 43.6962 41.2681C40.24 42.8912 37.4521 45.635 35.7976 49.0417C34.1431 52.4485 33.722 56.3123 34.6047 59.9885C35.4873 63.6646 37.6203 66.9309 40.6477 69.2424C43.6752 71.5539 47.4141 72.7708 51.2406 72.6902C55.0672 72.6095 58.75 71.2362 61.6748 68.7992C64.5995 66.3623 66.5893 63.0091 67.3121 59.2991H50.611L55.509 53.1403H59.8192L73.7155 53.1573C73.7155 53.242 73.7155 53.3287 73.7289 53.4153C73.7537 54.0105 73.7785 54.5981 73.7785 55.1631Z" fill="white"/>
<path d="M38.947 83.9805C37.7221 83.9416 36.5136 83.8512 35.3217 83.7093C34.0472 83.5624 32.7898 83.3552 31.5514 83.0953C30.2616 82.8253 28.9896 82.4989 27.7354 82.1159C27.3537 81.9973 26.9721 81.8748 26.5905 81.7392C25.6766 81.4303 24.7722 81.0913 23.8849 80.7203C22.5561 80.1689 21.2569 79.5503 19.9925 78.867L19.7521 78.7371C18.4796 78.0431 17.2441 77.285 16.0505 76.4657C15.625 76.1756 15.2071 75.8762 14.7931 75.5673C14.3161 75.2132 13.8473 74.8497 13.3869 74.4768C12.927 74.1001 12.4748 73.7234 12.0302 73.3298C11.6486 72.9889 11.267 72.6405 10.8854 72.2826C9.83826 71.2911 8.84288 70.2476 7.90313 69.1562L7.87832 68.9057L7.71232 68.9321C6.78638 67.8397 5.91772 66.7013 5.10975 65.5212C4.58313 64.7553 4.08258 63.9699 3.60811 63.1651C3.39251 62.7997 3.18262 62.4362 2.98037 62.0651C2.3558 60.9351 1.78339 59.7699 1.26313 58.5695C0.795018 57.496 0.373977 56.3986 0 55.2773L4.45529 56.0834C4.73577 56.7916 5.0277 57.4903 5.35779 58.174C5.90004 59.3286 6.50055 60.4557 7.15708 61.551L7.16853 61.6621H7.22195C7.93544 62.849 8.71512 63.9959 9.5574 65.0974C10.1565 65.8847 10.7849 66.6456 11.4426 67.3801C11.7746 67.7568 12.1161 68.1203 12.4614 68.48C13.4335 69.4837 14.4596 70.4349 15.5353 71.3296L15.8082 71.5538C15.8978 71.6291 15.9894 71.7025 16.081 71.776C17.1885 72.6622 18.3439 73.4883 19.5422 74.2508C19.941 74.5032 20.3436 74.748 20.75 74.9891C21.6404 75.5089 22.5467 75.9929 23.469 76.4412C24.6911 77.035 25.9446 77.5637 27.224 78.0251C27.2622 78.0402 27.3003 78.0553 27.3385 78.0666C29.8023 78.9474 32.3506 79.5785 34.944 79.95C35.5679 80.0385 36.1937 80.112 36.8253 80.1685L37.1401 80.7335L38.947 83.9805Z" fill="white"/>
<path d="M82.7128 37.9217C82.772 38.5206 82.8178 39.1158 82.8502 39.711C82.9215 40.9389 82.9361 42.1575 82.8941 43.3667C82.8559 44.6097 82.7618 45.8396 82.6117 47.0562C82.461 48.3144 82.2492 49.5536 81.9859 50.7779C81.7111 52.051 81.3778 53.3035 80.9861 54.5353C80.9021 54.8008 80.8143 55.0645 80.7247 55.3282C80.4709 56.0815 80.1923 56.8349 79.8927 57.5657L77.895 54.8328L77.2348 53.9326C77.5363 53.021 77.8034 52.0962 78.0362 51.1583C78.3377 49.936 78.5781 48.6892 78.7575 47.4273C78.9292 46.2125 79.0437 44.9788 79.0952 43.7339C79.1461 42.5248 79.1391 41.3049 79.0742 40.0745C79.0437 39.5094 78.9998 38.9331 78.9425 38.3587C78.8802 37.7171 78.8007 37.0805 78.704 36.4489C78.5247 35.2284 78.2843 34.0306 77.9904 32.8554C77.687 31.6443 77.3264 30.4559 76.9105 29.2995C76.4855 28.1015 75.9983 26.926 75.4508 25.7775C74.942 24.709 74.3861 23.6706 73.7832 22.6623C73.7126 22.5399 73.6382 22.4194 73.5638 22.2988C72.8398 21.1126 72.0506 19.9664 71.1997 18.8654C70.6553 18.161 70.0873 17.4773 69.4958 16.8144C69.0951 16.3611 68.6823 15.9216 68.2575 15.496C67.3502 14.5653 66.3949 13.6814 65.3954 12.8479C65.2599 12.7349 65.1264 12.6238 64.9909 12.5164C64.8554 12.4091 64.72 12.2961 64.5845 12.1906C63.5615 11.3805 62.4973 10.6224 61.3961 9.91921C60.8873 9.59652 60.3728 9.28262 59.8525 8.9775C59.0753 8.52925 58.2809 8.10863 57.4694 7.71562C56.2106 7.10276 54.9189 6.55827 53.5999 6.08459L53.2278 5.95463C52.0982 5.56163 50.9477 5.22073 49.7761 4.93194C48.5288 4.62476 47.2666 4.37961 45.9944 4.19742C44.7605 4.02289 43.5127 3.90612 42.2508 3.8471C41.0258 3.7906 39.7894 3.7906 38.5416 3.8471C37.9234 3.87724 37.3039 3.92244 36.6831 3.98271C36.0624 4.04298 35.4569 4.11517 34.8667 4.1993C33.6328 4.37634 32.4193 4.60863 31.2261 4.89616C29.9999 5.19374 28.7985 5.54594 27.6218 5.95275C26.409 6.37198 25.2187 6.85225 24.0557 7.39168C23.1869 7.79221 22.3384 8.22351 21.5104 8.68558L20.4247 8.19401L17.2363 6.74755C17.8723 6.33697 18.523 5.94333 19.1883 5.56665C19.4955 5.39338 19.8026 5.22387 20.1156 5.05813C21.2604 4.44414 22.4408 3.87912 23.6569 3.36307C24.8221 2.86961 26.0146 2.43015 27.2345 2.04468C28.4149 1.668 29.6195 1.34091 30.8483 1.06342C31.7108 0.875084 32.5808 0.699927 33.4662 0.556788L39.0224 0.0219003C39.9764 -0.00823422 40.9304 -0.00635081 41.873 0.0219003C43.1323 0.0633353 44.3783 0.160017 45.6109 0.311945C46.8829 0.466384 48.1403 0.676698 49.3831 0.942887C50.6729 1.21786 51.9418 1.5506 53.1896 1.94109C53.4663 2.02585 53.7392 2.11625 54.012 2.20665C55.0366 2.55132 56.0479 2.93177 57.0382 3.34988C58.3537 3.9033 59.64 4.52184 60.8924 5.20316L60.9344 5.22576C62.2949 5.97073 63.6134 6.78808 64.8841 7.67419C65.2199 7.90961 65.5519 8.14504 65.8782 8.388C66.4035 8.77598 66.918 9.17464 67.4218 9.58396C67.9255 9.99643 68.4235 10.4183 68.9081 10.8515C69.2096 11.1208 69.5092 11.392 69.7992 11.6727C70.924 12.7312 71.9878 13.851 72.9856 15.027C73.0047 15.0477 73.02 15.0684 73.0371 15.0892C73.9468 16.1618 74.8014 17.2788 75.5977 18.436C76.2198 19.3388 76.8049 20.266 77.3531 21.2178C77.4829 21.4419 77.6088 21.666 77.7347 21.892C78.3606 23.0221 78.9368 24.1898 79.452 25.3858C79.9519 26.5371 80.4022 27.7143 80.8029 28.9171C81.1845 30.0823 81.5197 31.2708 81.8084 32.4824C82.0832 33.6596 82.3122 34.8593 82.4858 36.0779C82.5755 36.6919 82.6518 37.304 82.7128 37.9217Z" fill="white"/>
</svg>
