<svg width="186" height="36" viewBox="0 0 186 36" fill="none" xmlns="http://www.w3.org/2000/svg">
<g clip-path="url(#clip0_4141_10269)">
<path d="M91.9924 24.0827V10.772H87V7.92188H99.9796L98.0965 10.772H94.9864V24.0827H91.9924Z" fill="#2A3659"/>
<path d="M132.662 24.0827V7.92188H139.349C139.502 7.92188 139.709 7.92733 139.97 7.93824C140.204 7.94705 140.437 7.97153 140.668 8.01152C141.614 8.16121 142.39 8.47902 142.995 8.96496C143.593 9.44328 144.055 10.0771 144.331 10.8001C144.625 11.5862 144.771 12.4222 144.759 13.2636C144.759 14.618 144.428 15.7757 143.766 16.7367C143.104 17.6976 142.07 18.2906 140.665 18.5157L139.345 18.6053H135.657V24.0827H132.662ZM135.657 15.7552H139.221C139.373 15.7552 139.543 15.7481 139.726 15.7326C139.898 15.7201 140.067 15.6901 140.232 15.6429C140.636 15.5306 140.947 15.3417 141.167 15.0761C141.384 14.8197 141.54 14.5167 141.626 14.1897C141.795 13.5844 141.795 12.9428 141.626 12.3375C141.54 12.0106 141.383 11.7076 141.167 11.4511C140.947 11.186 140.636 10.9971 140.232 10.8843C140.067 10.8375 139.897 10.8075 139.726 10.7947C139.543 10.7796 139.374 10.772 139.221 10.772H135.657V15.7552ZM141.596 24.0827L138.473 17.5061L141.552 16.8996L144.983 24.0827H141.596Z" fill="#2A3659"/>
<path d="M147.949 24.0827V7.92188H158.287V10.772H150.94V14.2287H156.972V17.0797H150.944V21.2318H158.291V24.0827H147.949Z" fill="#2A3659"/>
<path d="M161.479 24.0827V7.92188H171.816V10.772H164.47V14.2287H170.493V17.0797H164.466V21.2318H171.813V24.0827H161.479Z" fill="#2A3659"/>
<path d="M178.676 24.0827V10.772H173.684V7.92188H186.661L184.766 10.772H181.668V24.0827H178.676Z" fill="#2A3659"/>
<path d="M41.7988 24.0827V7.92188H44.4826L49.7172 18.6505L54.9519 7.92188H57.6356V24.0827H54.8418V14.4306L50.2451 24.0827H49.1893L44.5919 14.4306V24.0827H41.7988Z" fill="#2A3659"/>
<path d="M61.2656 24.0827V7.92188H71.6035V10.772H64.2573V14.2287H70.2841V17.0797H64.2573V21.2318H71.6035V24.0827H61.2656Z" fill="#2A3659"/>
<path d="M74.791 24.0827V7.92188H85.1296V10.772H77.7827V14.2287H83.8095V17.0797H77.7827V21.2318H85.1296V24.0827H74.791Z" fill="#2A3659"/>
<path d="M105.872 21.0495V17.1664H102.066V14.8097H105.872V10.9492H108.181V14.8097H111.965V17.1664H108.181V21.0495H105.872Z" fill="#2A3659"/>
<path d="M121.973 24.4172C120.998 24.4213 120.032 24.2361 119.124 23.8715C118.226 23.5108 117.411 22.9625 116.733 22.2617C116.039 21.5507 115.493 20.6716 115.094 19.6243C114.695 18.5771 114.495 17.3687 114.494 15.9992C114.494 14.2109 114.83 12.6901 115.501 11.4371C116.172 10.184 117.074 9.22826 118.206 8.56977C119.339 7.91076 120.595 7.58151 121.973 7.58203C124.01 7.58203 125.612 8.0646 126.779 9.02973C127.945 9.99485 128.726 11.3602 129.122 13.1257L126.066 13.5747C125.78 12.6325 125.313 11.8789 124.663 11.3139C124.014 10.749 123.184 10.4631 122.173 10.4564C121.168 10.4418 120.332 10.6627 119.665 11.119C118.997 11.5753 118.496 12.2224 118.163 13.0602C117.829 13.8985 117.662 14.8787 117.661 16.0008C117.661 17.1229 117.828 18.0953 118.163 18.918C118.496 19.7412 118.996 20.381 119.663 20.8373C120.33 21.2937 121.166 21.5294 122.171 21.5444C122.807 21.5685 123.441 21.4456 124.024 21.185C124.589 20.9216 125.074 20.5067 125.426 19.9845C125.808 19.4388 126.079 18.7392 126.24 17.8858H123.733V15.5291H129.429C129.449 15.7005 129.46 15.8727 129.462 16.0452C129.47 16.2924 129.473 16.435 129.473 16.4717C129.473 18.021 129.165 19.3941 128.549 20.591C127.959 21.7608 127.055 22.7356 125.943 23.4022C124.821 24.0789 123.498 24.4172 121.973 24.4172Z" fill="#2A3659"/>
</g>
<path d="M22.2565 0V10.6207H18.4179V5.80988L12.3091 13.742H9.17748L3.83861 6.11611V18.7456L0 22.2865V0H4.25019L10.8153 9.37975L18.0404 0H22.2565Z" fill="#2A3659"/>
<path d="M33.0876 24.4286C33.0905 27.1125 32.1412 29.7097 30.4101 31.7545C28.679 33.7994 26.2791 35.1582 23.6408 35.5874C21.0024 36.0165 18.2981 35.488 16.0127 34.0965C13.7272 32.705 12.01 30.5416 11.169 27.994C10.3279 25.4464 10.4179 22.6814 11.4229 20.1944C12.428 17.7075 14.2822 15.6613 16.6534 14.4227C19.0245 13.1842 21.7574 12.8342 24.3622 13.4355C26.9669 14.0369 29.2732 15.5502 30.8677 17.7043L28.0228 20.3319C27.0984 18.931 25.728 17.8865 24.1357 17.3692C22.5435 16.852 20.8235 16.8925 19.2572 17.4843C17.6908 18.0761 16.3708 19.1841 15.5129 20.627C14.6551 22.07 14.3102 23.7626 14.5346 25.4279C14.7591 27.0933 15.5396 28.6329 16.7485 29.795C17.9575 30.9571 19.5233 31.6728 21.1899 31.8252C22.8566 31.9776 24.5254 31.5576 25.9235 30.634C27.3216 29.7103 28.3662 28.3376 28.8865 26.7403H21.0707L25.2046 22.9274H32.9885C33.055 23.425 33.0881 23.9265 33.0876 24.4286Z" fill="#2A3659"/>
<defs>
<clipPath id="clip0_4141_10269">
<rect width="172" height="26" fill="white" transform="translate(14 3)"/>
</clipPath>
</defs>
</svg>
