<svg width="27" height="36" viewBox="0 0 27 36" fill="none" xmlns="http://www.w3.org/2000/svg">
<path d="M19.3438 7.34375C17.375 7.34375 15.7656 5.75 15.7656 3.76562C15.7656 1.79688 17.375 0.203125 19.3438 0.203125C21.3281 0.203125 22.9219 1.79688 22.9219 3.76562C22.9219 5.75 21.3281 7.34375 19.3438 7.34375ZM13.2656 35.3281C6.09375 35.3281 1.35938 30.5312 1.35938 23.4688C1.35938 21.3281 1.95312 19.375 2.92188 17.7344C4.04688 15.75 6.51562 17.2031 5.48438 18.9531C4.67188 20.25 4.21875 21.7656 4.21875 23.4688C4.21875 28.7969 7.82812 32.4844 13.2812 32.4844C18.6094 32.4844 22.2188 28.9062 22.2188 23.7188C22.2188 22.5156 21.375 21.7969 20.1562 21.7969H14.6094C12.2656 21.7969 10.875 19.75 11.7188 17.3594L13.5 12.3281C13.7344 11.7188 13.4844 11.2812 12.8281 11.0938L9.42188 10.1875L3.57812 13.2812C2.73438 13.7188 1.82812 13.5781 1.3125 12.8438C0.765625 12.1094 0.953125 11.0156 1.71875 10.5625L8.10938 6.96875C8.70312 6.625 9.1875 6.53125 9.8125 6.6875L16.375 8.34375C18.6406 8.90625 19.6406 10.75 18.9688 12.8438L17.5 17.2812C17.3594 17.6875 17.5781 17.9219 17.9219 17.9219H20.0469C23.2969 17.9219 25.0625 20.0312 25.0625 23.7188C25.0625 30.625 20.3281 35.3281 13.2656 35.3281ZM25.1562 35.3281C24.1406 35.3281 23.3281 34.5156 23.3281 33.5C23.3281 32.4844 24.1406 31.6719 25.1562 31.6719C26.1875 31.6719 27 32.4844 27 33.5C27 34.5156 26.1875 35.3281 25.1562 35.3281Z" fill="#2A3659"/>
</svg>
