<svg width="35" height="34" viewBox="0 0 35 34" fill="none" xmlns="http://www.w3.org/2000/svg">
<path d="M7.92188 5.89062C7.92188 2.65625 9.6875 0.125 11.9531 0.125C14.2188 0.125 16 2.65625 16 5.89062C16 9.09375 14.2188 11.6406 11.9531 11.6406C9.70312 11.6406 7.92188 9.10938 7.92188 5.89062ZM18.3906 5.89062C18.3906 2.65625 20.1562 0.125 22.4375 0.125C24.6875 0.125 26.4688 2.65625 26.4688 5.89062C26.4688 9.10938 24.6875 11.6406 22.4375 11.6406C20.1562 11.6406 18.3906 9.09375 18.3906 5.89062ZM0.109375 15.2031C0.109375 11.9844 1.875 9.4375 4.125 9.4375C6.39062 9.4375 8.17188 11.9844 8.17188 15.2031C8.17188 18.4375 6.39062 20.9688 4.125 20.9688C1.875 20.9688 0.109375 18.4375 0.109375 15.2031ZM26.2188 15.2031C26.2188 11.9844 27.9844 9.4375 30.25 9.4375C32.5156 9.4375 34.2656 11.9844 34.2656 15.2031C34.2656 18.4375 32.5156 20.9688 30.25 20.9688C27.9844 20.9688 26.2188 18.4375 26.2188 15.2031ZM5.07812 27.5625C5.07812 24.7656 6.76562 23.3281 8.32812 22.0469C9.1875 21.3594 10.0156 20.6875 10.5938 19.8281C11.0312 19.1562 11.4062 18.4062 11.7812 17.625C12.9219 15.2031 13.8281 12.8281 17.1875 12.8281C20.5469 12.8281 21.4531 15.2031 22.6094 17.6406C22.9688 18.4219 23.3438 19.1562 23.7969 19.8438C24.3594 20.7031 25.1875 21.3594 26.0469 22.0469C27.6094 23.3281 29.2969 24.7656 29.2969 27.5625C29.2969 30.9219 27.0469 33.3125 23.75 33.3125C22.1406 33.3125 20.9688 32.8594 19.8906 32.4844C19 32.1719 18.1875 31.9062 17.1875 31.9062C16.1875 31.9062 15.375 32.1719 14.4844 32.4844C13.4062 32.8594 12.2344 33.3125 10.625 33.3125C7.32812 33.3125 5.07812 30.9219 5.07812 27.5625Z" fill="#2A3659"/>
</svg>
