<svg width="316" height="840" viewBox="0 0 316 840" fill="none" xmlns="http://www.w3.org/2000/svg">
<path d="M56.2274 29.2901C56.2274 44.0833 44.2211 56.0803 29.4047 56.0803C14.5883 56.0803 2.58203 44.0833 2.58203 29.2901C2.58203 14.497 14.5883 2.5 29.4047 2.5C44.2211 2.5 56.2274 14.497 56.2274 29.2901Z" stroke="#2A3659" stroke-opacity="0.1" stroke-width="5"/>
<path d="M121.472 94.462C121.472 109.255 109.465 121.252 94.6488 121.252C79.8325 121.252 67.8262 109.255 67.8262 94.462C67.8262 79.6688 79.8325 67.6719 94.6488 67.6719C109.465 67.6719 121.472 79.6688 121.472 94.462Z" stroke="#2A3659" stroke-opacity="0.1" stroke-width="5"/>
<path d="M252.416 94.3058C252.416 109.099 240.41 121.096 225.593 121.096C210.777 121.096 198.771 109.099 198.771 94.3058C198.771 79.5126 210.777 67.5156 225.593 67.5156C240.41 67.5156 252.416 79.5126 252.416 94.3058Z" stroke="#2A3659" stroke-opacity="0.1" stroke-width="5"/>
<path d="M186.714 159.634C186.714 174.427 174.707 186.424 159.891 186.424C145.075 186.424 133.068 174.427 133.068 159.634C133.068 144.841 145.075 132.844 159.891 132.844C174.707 132.844 186.714 144.841 186.714 159.634Z" stroke="#2A3659" stroke-opacity="0.1" stroke-width="5"/>
<path d="M309.495 159.321C309.495 174.115 297.489 186.112 282.672 186.112C267.856 186.112 255.85 174.115 255.85 159.321C255.85 144.528 267.856 132.531 282.672 132.531C297.489 132.531 309.495 144.528 309.495 159.321Z" stroke="#2A3659" stroke-opacity="0.1" stroke-width="5"/>
<path d="M186.714 289.978C186.714 304.771 174.707 316.768 159.891 316.768C145.075 316.768 133.068 304.771 133.068 289.978C133.068 275.184 145.075 263.188 159.891 263.188C174.707 263.188 186.714 275.184 186.714 289.978Z" stroke="#2A3659" stroke-opacity="0.1" stroke-width="5"/>
<path d="M309.495 290.36C309.495 305.154 297.489 317.151 282.672 317.151C267.856 317.151 255.85 305.154 255.85 290.36C255.85 275.567 267.856 263.57 282.672 263.57C297.489 263.57 309.495 275.567 309.495 290.36Z" stroke="#2A3659" stroke-opacity="0.1" stroke-width="5"/>
<path d="M186.632 420.689C186.632 435.482 174.625 447.479 159.809 447.479C144.993 447.479 132.986 435.482 132.986 420.689C132.986 405.895 144.993 393.898 159.809 393.898C174.625 393.898 186.632 405.895 186.632 420.689Z" stroke="#2A3659" stroke-opacity="0.1" stroke-width="5"/>
<path d="M309.495 420.4C309.495 435.193 297.489 447.19 282.672 447.19C267.856 447.19 255.85 435.193 255.85 420.4C255.85 405.606 267.856 393.609 282.672 393.609C297.489 393.609 309.495 405.606 309.495 420.4Z" stroke="#2A3659" stroke-opacity="0.1" stroke-width="5"/>
<path d="M186.632 550.642C186.632 565.435 174.625 577.432 159.809 577.432C144.993 577.432 132.986 565.435 132.986 550.642C132.986 535.849 144.993 523.852 159.809 523.852C174.625 523.852 186.632 535.849 186.632 550.642Z" stroke="#2A3659" stroke-opacity="0.1" stroke-width="5"/>
<path d="M311.497 550.431C311.497 565.224 299.491 577.221 284.674 577.221C269.858 577.221 257.852 565.224 257.852 550.431C257.852 535.638 269.858 523.641 284.674 523.641C299.491 523.641 311.497 535.638 311.497 550.431Z" stroke="#2A3659" stroke-opacity="0.1" stroke-width="5"/>
<path d="M186.632 680.673C186.632 695.466 174.625 707.463 159.809 707.463C144.993 707.463 132.986 695.466 132.986 680.673C132.986 665.88 144.993 653.883 159.809 653.883C174.625 653.883 186.632 665.88 186.632 680.673Z" stroke="#2A3659" stroke-opacity="0.1" stroke-width="5"/>
<path d="M311.497 680.462C311.497 695.255 299.491 707.252 284.674 707.252C269.858 707.252 257.852 695.255 257.852 680.462C257.852 665.669 269.858 653.672 284.674 653.672C299.491 653.672 311.497 665.669 311.497 680.462Z" stroke="#2A3659" stroke-opacity="0.1" stroke-width="5"/>
<path d="M186.632 810.712C186.632 825.505 174.625 837.502 159.809 837.502C144.993 837.502 132.986 825.505 132.986 810.712C132.986 795.919 144.993 783.922 159.809 783.922C174.625 783.922 186.632 795.919 186.632 810.712Z" stroke="#2A3659" stroke-opacity="0.1" stroke-width="5"/>
<path d="M311.497 810.501C311.497 825.294 299.491 837.291 284.674 837.291C269.858 837.291 257.852 825.294 257.852 810.501C257.852 795.708 269.858 783.711 284.674 783.711C299.491 783.711 311.497 795.708 311.497 810.501Z" stroke="#2A3659" stroke-opacity="0.1" stroke-width="5"/>
<path d="M56.2274 159.634C56.2274 174.427 44.2211 186.424 29.4047 186.424C14.5883 186.424 2.58203 174.427 2.58203 159.634C2.58203 144.841 14.5883 132.844 29.4047 132.844C44.2211 132.844 56.2274 144.841 56.2274 159.634Z" stroke="#2A3659" stroke-opacity="0.1" stroke-width="5"/>
<path d="M56.2274 289.978C56.2274 304.771 44.2211 316.768 29.4047 316.768C14.5883 316.768 2.58203 304.771 2.58203 289.978C2.58203 275.184 14.5883 263.188 29.4047 263.188C44.2211 263.188 56.2274 275.184 56.2274 289.978Z" stroke="#2A3659" stroke-opacity="0.1" stroke-width="5"/>
<path d="M56.1454 420.689C56.1454 435.482 44.139 447.479 29.3227 447.479C14.5063 447.479 2.5 435.482 2.5 420.689C2.5 405.895 14.5063 393.898 29.3227 393.898C44.139 393.898 56.1454 405.895 56.1454 420.689Z" stroke="#2A3659" stroke-opacity="0.1" stroke-width="5"/>
<path d="M56.1454 550.642C56.1454 565.435 44.139 577.432 29.3227 577.432C14.5063 577.432 2.5 565.435 2.5 550.642C2.5 535.849 14.5063 523.852 29.3227 523.852C44.139 523.852 56.1454 535.849 56.1454 550.642Z" stroke="#2A3659" stroke-opacity="0.1" stroke-width="5"/>
<path d="M56.1454 680.673C56.1454 695.466 44.139 707.463 29.3227 707.463C14.5063 707.463 2.5 695.466 2.5 680.673C2.5 665.88 14.5063 653.883 29.3227 653.883C44.139 653.883 56.1454 665.88 56.1454 680.673Z" stroke="#2A3659" stroke-opacity="0.1" stroke-width="5"/>
<path d="M56.1454 810.712C56.1454 825.505 44.139 837.502 29.3227 837.502C14.5063 837.502 2.5 825.505 2.5 810.712C2.5 795.919 14.5063 783.922 29.3227 783.922C44.139 783.922 56.1454 795.919 56.1454 810.712Z" stroke="#2A3659" stroke-opacity="0.1" stroke-width="5"/>
<path d="M121.472 224.806C121.472 239.599 109.465 251.596 94.6488 251.596C79.8325 251.596 67.8262 239.599 67.8262 224.806C67.8262 210.013 79.8325 198.016 94.6488 198.016C109.465 198.016 121.472 210.013 121.472 224.806Z" stroke="#2A3659" stroke-opacity="0.1" stroke-width="5"/>
<path d="M252.416 224.345C252.416 239.138 240.41 251.135 225.593 251.135C210.777 251.135 198.771 239.138 198.771 224.345C198.771 209.552 210.777 197.555 225.593 197.555C240.41 197.555 252.416 209.552 252.416 224.345Z" stroke="#2A3659" stroke-opacity="0.1" stroke-width="5"/>
<path d="M121.472 355.15C121.472 369.943 109.465 381.94 94.6488 381.94C79.8325 381.94 67.8262 369.943 67.8262 355.15C67.8262 340.356 79.8325 328.359 94.6488 328.359C109.465 328.359 121.472 340.356 121.472 355.15Z" stroke="#2A3659" stroke-opacity="0.1" stroke-width="5"/>
<path d="M252.416 355.376C252.416 370.169 240.41 382.166 225.593 382.166C210.777 382.166 198.771 370.169 198.771 355.376C198.771 340.583 210.777 328.586 225.593 328.586C240.41 328.586 252.416 340.583 252.416 355.376Z" stroke="#2A3659" stroke-opacity="0.1" stroke-width="5"/>
<path d="M121.389 485.665C121.389 500.458 109.383 512.455 94.5668 512.455C79.7504 512.455 67.7441 500.458 67.7441 485.665C67.7441 470.872 79.7504 458.875 94.5668 458.875C109.383 458.875 121.389 470.872 121.389 485.665Z" stroke="#2A3659" stroke-opacity="0.1" stroke-width="5"/>
<path d="M252.416 486.415C252.416 501.208 240.41 513.205 225.593 513.205C210.777 513.205 198.771 501.208 198.771 486.415C198.771 471.622 210.777 459.625 225.593 459.625C240.41 459.625 252.416 471.622 252.416 486.415Z" stroke="#2A3659" stroke-opacity="0.1" stroke-width="5"/>
<path d="M121.389 615.618C121.389 630.411 109.383 642.408 94.5668 642.408C79.7504 642.408 67.7441 630.411 67.7441 615.618C67.7441 600.825 79.7504 588.828 94.5668 588.828C109.383 588.828 121.389 600.825 121.389 615.618Z" stroke="#2A3659" stroke-opacity="0.1" stroke-width="5"/>
<path d="M121.389 745.65C121.389 760.443 109.383 772.44 94.5668 772.44C79.7504 772.44 67.7441 760.443 67.7441 745.65C67.7441 730.856 79.7504 718.859 94.5668 718.859C109.383 718.859 121.389 730.856 121.389 745.65Z" stroke="#2A3659" stroke-opacity="0.1" stroke-width="5"/>
<path d="M252.416 615.446C252.416 630.24 240.41 642.237 225.593 642.237C210.777 642.237 198.771 630.24 198.771 615.446C198.771 600.653 210.777 588.656 225.593 588.656C240.41 588.656 252.416 600.653 252.416 615.446Z" stroke="#2A3659" stroke-opacity="0.1" stroke-width="5"/>
<path d="M252.416 745.485C252.416 760.279 240.41 772.276 225.593 772.276C210.777 772.276 198.771 760.279 198.771 745.485C198.771 730.692 210.777 718.695 225.593 718.695C240.41 718.695 252.416 730.692 252.416 745.485Z" stroke="#2A3659" stroke-opacity="0.1" stroke-width="5"/>
<path d="M186.714 29.2901C186.714 44.0833 174.707 56.0803 159.891 56.0803C145.075 56.0803 133.068 44.0833 133.068 29.2901C133.068 14.497 145.075 2.5 159.891 2.5C174.707 2.5 186.714 14.497 186.714 29.2901Z" stroke="#2A3659" stroke-opacity="0.1" stroke-width="5"/>
<path d="M309.495 29.2901C309.495 44.0833 297.489 56.0803 282.672 56.0803C267.856 56.0803 255.85 44.0833 255.85 29.2901C255.85 14.497 267.856 2.5 282.672 2.5C297.489 2.5 309.495 14.497 309.495 29.2901Z" stroke="#2A3659" stroke-opacity="0.1" stroke-width="5"/>
<path d="M104.258 3.625V18.8034H99.8087V9.80759L89.1558 22.764H85.7784L75.0848 9.80759V32.2221L70.6181 36.0048L70.6055 31.9321V3.625H75.1072L87.4544 18.2948L99.8115 3.625H104.258Z" fill="#2A3659" fill-opacity="0.1"/>
<path d="M118.776 37.5216C118.776 38.5508 118.712 39.579 118.583 40.6001C118.042 44.4389 116.182 47.9729 113.317 50.6006C110.453 53.2283 106.762 54.7875 102.872 55.0127C98.9827 55.238 95.1348 54.1155 91.9833 51.8362C88.8318 49.5569 86.5715 46.2617 85.587 42.5112C84.6024 38.7607 84.9545 34.7866 86.5833 31.2653C88.2121 27.744 91.0169 24.8929 94.5206 23.1972C98.0243 21.5015 102.01 21.066 105.8 21.9647C109.59 22.8634 112.95 25.0409 115.308 28.1266L111.675 30.7993C109.956 28.574 107.521 27.0025 104.778 26.3472C102.034 25.6918 99.1481 25.9921 96.6004 27.198C94.0526 28.4039 91.9975 30.4425 90.7779 32.9736C89.5583 35.5048 89.2479 38.3754 89.8986 41.1067C90.5492 43.838 92.1215 46.2648 94.3532 47.9821C96.5849 49.6995 99.341 50.6036 102.162 50.5437C104.983 50.4838 107.697 49.4634 109.853 47.6528C112.009 45.8423 113.476 43.351 114.009 40.5945H101.698L105.308 36.0188H108.485L118.729 36.0313C118.729 36.0943 118.729 36.1587 118.739 36.2231C118.757 36.6652 118.776 37.1018 118.776 37.5216Z" fill="#2A3659" fill-opacity="0.1"/>
<path d="M235.203 3.625V18.8034H230.753V9.80759L220.1 22.764H216.723L206.029 9.80759V32.2221L201.562 36.0048L201.55 31.9321V3.625H206.052L218.399 18.2948L230.756 3.625H235.203Z" fill="#2A3659" fill-opacity="0.1"/>
<path d="M249.72 37.5216C249.72 38.5508 249.656 39.579 249.527 40.6001C248.987 44.4389 247.126 47.9729 244.262 50.6006C241.397 53.2283 237.706 54.7875 233.817 55.0127C229.927 55.238 226.079 54.1155 222.928 51.8362C219.776 49.5569 217.516 46.2617 216.531 42.5112C215.547 38.7607 215.899 34.7866 217.528 31.2653C219.156 27.744 221.961 24.8929 225.465 23.1972C228.969 21.5015 232.955 21.066 236.745 21.9647C240.535 22.8634 243.895 25.0409 246.253 28.1266L242.62 30.7993C240.9 28.574 238.466 27.0025 235.722 26.3472C232.979 25.6918 230.092 25.9921 227.545 27.198C224.997 28.4039 222.942 30.4425 221.722 32.9736C220.503 35.5048 220.192 38.3754 220.843 41.1067C221.494 43.838 223.066 46.2648 225.298 47.9821C227.529 49.6995 230.285 50.6036 233.106 50.5437C235.927 50.4838 238.642 49.4634 240.798 47.6528C242.954 45.8423 244.42 43.351 244.953 40.5945H232.642L236.253 36.0188H239.43L249.673 36.0313C249.673 36.0943 249.673 36.1587 249.683 36.2231C249.702 36.6652 249.72 37.1018 249.72 37.5216Z" fill="#2A3659" fill-opacity="0.1"/>
<path d="M169.501 68.7969V83.9753H165.051V74.9795L154.398 87.9359H151.021L140.327 74.9795V97.394L135.86 101.177L135.848 97.104V68.7969H140.349L152.697 83.4667L165.054 68.7969H169.501Z" fill="#2A3659" fill-opacity="0.1"/>
<path d="M184.018 102.693C184.018 103.723 183.954 104.751 183.825 105.772C183.285 109.611 181.424 113.145 178.56 115.772C175.695 118.4 172.004 119.959 168.115 120.185C164.225 120.41 160.377 119.287 157.225 117.008C154.074 114.729 151.814 111.434 150.829 107.683C149.845 103.933 150.197 99.9585 151.825 96.4372C153.454 92.9158 156.259 90.0648 159.763 88.3691C163.266 86.6734 167.252 86.2379 171.042 87.1366C174.833 88.0353 178.193 90.2128 180.551 93.2985L176.918 95.9712C175.198 93.7458 172.763 92.1744 170.02 91.519C167.277 90.8637 164.39 91.164 161.843 92.3699C159.295 93.5758 157.24 95.6144 156.02 98.1455C154.8 100.677 154.49 103.547 155.141 106.279C155.791 109.01 157.364 111.437 159.595 113.154C161.827 114.871 164.583 115.776 167.404 115.716C170.225 115.656 172.939 114.635 175.095 112.825C177.251 111.014 178.718 108.523 179.251 105.766H166.94L170.55 101.191H173.728L183.971 101.203C183.971 101.266 183.971 101.331 183.981 101.395C183.999 101.837 184.018 102.274 184.018 102.693Z" fill="#2A3659" fill-opacity="0.1"/>
<path d="M292.282 68.6406V83.819H287.832V74.8232L277.179 87.7796H273.802L263.108 74.8232V97.2377L258.642 101.02L258.629 96.9477V68.6406H263.131L275.478 83.3104L287.835 68.6406H292.282Z" fill="#2A3659" fill-opacity="0.1"/>
<path d="M306.799 102.537C306.8 103.566 306.735 104.595 306.606 105.616C306.066 109.455 304.205 112.989 301.341 115.616C298.476 118.244 294.785 119.803 290.896 120.028C287.006 120.254 283.158 119.131 280.007 116.852C276.855 114.573 274.595 111.277 273.61 107.527C272.626 103.776 272.978 99.8023 274.607 96.2809C276.236 92.7596 279.04 89.9085 282.544 88.2128C286.048 86.5171 290.034 86.0816 293.824 86.9803C297.614 87.8791 300.974 90.0565 303.332 93.1422L299.699 95.8149C297.979 93.5896 295.545 92.0182 292.801 91.3628C290.058 90.7074 287.172 91.0077 284.624 92.2136C282.076 93.4195 280.021 95.4581 278.801 97.9892C277.582 100.52 277.271 103.391 277.922 106.122C278.573 108.854 280.145 111.28 282.377 112.998C284.608 114.715 287.364 115.619 290.185 115.559C293.006 115.499 295.721 114.479 297.877 112.668C300.033 110.858 301.499 108.367 302.032 105.61H289.721L293.332 101.034H296.509L306.753 101.047C306.753 101.11 306.753 101.174 306.762 101.239C306.781 101.681 306.799 102.117 306.799 102.537Z" fill="#2A3659" fill-opacity="0.1"/>
<path d="M38.9323 68.7969V83.9753H34.4825V74.9795L23.8296 87.9359H20.4522L9.7586 74.9795V97.394L5.29193 101.177L5.2793 97.104V68.7969H9.78106L22.1283 83.4667L34.4853 68.7969H38.9323Z" fill="#2A3659" fill-opacity="0.1"/>
<path d="M53.4494 102.693C53.4499 103.723 53.3855 104.751 53.2567 105.772C52.7162 109.611 50.8555 113.145 47.9912 115.772C45.1268 118.4 41.4358 119.959 37.5462 120.185C33.6565 120.41 29.8086 119.287 26.6571 117.008C23.5056 114.729 21.2453 111.434 20.2608 107.683C19.2763 103.933 19.6283 99.9585 21.2571 96.4372C22.8859 92.9158 25.6908 90.0648 29.1944 88.3691C32.6981 86.6734 36.6841 86.2379 40.4741 87.1366C44.2642 88.0353 47.6242 90.2128 49.9823 93.2985L46.3493 95.9712C44.6297 93.7458 42.1951 92.1744 39.4517 91.519C36.7083 90.8637 33.822 91.164 31.2742 92.3699C28.7265 93.5758 26.6714 95.6144 25.4518 98.1455C24.2321 100.677 23.9218 103.547 24.5724 106.279C25.2231 109.01 26.7954 111.437 29.0271 113.154C31.2587 114.871 34.0149 115.776 36.8356 115.716C39.6563 115.656 42.3711 114.635 44.5271 112.825C46.6831 111.014 48.1498 108.523 48.6827 105.766H36.3715L39.982 101.191H43.1593L53.403 101.203C53.403 101.266 53.403 101.331 53.4128 101.395C53.4311 101.837 53.4494 102.274 53.4494 102.693Z" fill="#2A3659" fill-opacity="0.1"/>
<path d="M104.258 133.969V149.147H99.8087V140.151L89.1558 153.108H85.7784L75.0848 140.151V162.566L70.6181 166.349L70.6055 162.276V133.969H75.1072L87.4544 148.639L99.8115 133.969H104.258Z" fill="#2A3659" fill-opacity="0.1"/>
<path d="M118.776 167.865C118.776 168.895 118.712 169.923 118.583 170.944C118.042 174.783 116.182 178.317 113.317 180.944C110.453 183.572 106.762 185.131 102.872 185.356C98.9827 185.582 95.1348 184.459 91.9833 182.18C88.8318 179.901 86.5715 176.605 85.587 172.855C84.6024 169.104 84.9545 165.13 86.5833 161.609C88.2121 158.088 91.0169 155.237 94.5206 153.541C98.0243 151.845 102.01 151.41 105.8 152.308C109.59 153.207 112.95 155.385 115.308 158.47L111.675 161.143C109.956 158.918 107.521 157.346 104.778 156.691C102.034 156.036 99.1481 156.336 96.6004 157.542C94.0526 158.748 91.9975 160.786 90.7779 163.317C89.5583 165.849 89.2479 168.719 89.8986 171.45C90.5492 174.182 92.1215 176.609 94.3532 178.326C96.5849 180.043 99.341 180.947 102.162 180.887C104.983 180.828 107.697 179.807 109.853 177.997C112.009 176.186 113.476 173.695 114.009 170.938H101.698L105.308 166.363H108.485L118.729 166.375C118.729 166.438 118.729 166.502 118.739 166.567C118.757 167.009 118.776 167.446 118.776 167.865Z" fill="#2A3659" fill-opacity="0.1"/>
<path d="M235.203 133.656V148.835H230.753V139.839L220.1 152.795H216.723L206.029 139.839V162.253L201.562 166.036L201.55 161.963V133.656H206.052L218.399 148.326L230.756 133.656H235.203Z" fill="#2A3659" fill-opacity="0.1"/>
<path d="M249.72 167.553C249.72 168.582 249.656 169.61 249.527 170.631C248.987 174.47 247.126 178.004 244.262 180.632C241.397 183.26 237.706 184.819 233.817 185.044C229.927 185.269 226.079 184.147 222.928 181.867C219.776 179.588 217.516 176.293 216.531 172.542C215.547 168.792 215.899 164.818 217.528 161.297C219.156 157.775 221.961 154.924 225.465 153.228C228.969 151.533 232.955 151.097 236.745 151.996C240.535 152.895 243.895 155.072 246.253 158.158L242.62 160.831C240.9 158.605 238.466 157.034 235.722 156.378C232.979 155.723 230.092 156.023 227.545 157.229C224.997 158.435 222.942 160.474 221.722 163.005C220.503 165.536 220.192 168.407 220.843 171.138C221.494 173.869 223.066 176.296 225.298 178.013C227.529 179.731 230.285 180.635 233.106 180.575C235.927 180.515 238.642 179.495 240.798 177.684C242.954 175.874 244.42 173.382 244.953 170.626H232.642L236.253 166.05H239.43L249.673 166.063C249.673 166.126 249.673 166.19 249.683 166.254C249.702 166.696 249.72 167.133 249.72 167.553Z" fill="#2A3659" fill-opacity="0.1"/>
<path d="M104.258 264.312V279.491H99.8087V270.495L89.1558 283.451H85.7784L75.0848 270.495V292.91L70.6181 296.692L70.6055 292.62V264.312H75.1072L87.4544 278.982L99.8115 264.312H104.258Z" fill="#2A3659" fill-opacity="0.1"/>
<path d="M118.776 298.209C118.776 299.238 118.712 300.266 118.583 301.288C118.042 305.126 116.182 308.66 113.317 311.288C110.453 313.916 106.762 315.475 102.872 315.7C98.9827 315.926 95.1348 314.803 91.9833 312.524C88.8318 310.244 86.5715 306.949 85.587 303.199C84.6024 299.448 84.9545 295.474 86.5833 291.953C88.2121 288.431 91.0169 285.58 94.5206 283.885C98.0243 282.189 102.01 281.753 105.8 282.652C109.59 283.551 112.95 285.728 115.308 288.814L111.675 291.487C109.956 289.261 107.521 287.69 104.778 287.035C102.034 286.379 99.1481 286.68 96.6004 287.886C94.0526 289.091 91.9975 291.13 90.7779 293.661C89.5583 296.192 89.2479 299.063 89.8986 301.794C90.5492 304.526 92.1215 306.952 94.3532 308.67C96.5849 310.387 99.341 311.291 102.162 311.231C104.983 311.171 107.697 310.151 109.853 308.34C112.009 306.53 113.476 304.038 114.009 301.282H101.698L105.308 296.706H108.485L118.729 296.719C118.729 296.782 118.729 296.846 118.739 296.911C118.757 297.353 118.776 297.789 118.776 298.209Z" fill="#2A3659" fill-opacity="0.1"/>
<path d="M235.203 264.695V279.874H230.753V270.878L220.1 283.834H216.723L206.029 270.878V293.292L201.562 297.075L201.55 293.002V264.695H206.052L218.399 279.365L230.756 264.695H235.203Z" fill="#2A3659" fill-opacity="0.1"/>
<path d="M249.72 298.592C249.72 299.621 249.656 300.649 249.527 301.67C248.987 305.509 247.126 309.043 244.262 311.671C241.397 314.299 237.706 315.858 233.817 316.083C229.927 316.308 226.079 315.186 222.928 312.907C219.776 310.627 217.516 307.332 216.531 303.581C215.547 299.831 215.899 295.857 217.528 292.336C219.156 288.814 221.961 285.963 225.465 284.268C228.969 282.572 232.955 282.136 236.745 283.035C240.535 283.934 243.895 286.111 246.253 289.197L242.62 291.87C240.9 289.644 238.466 288.073 235.722 287.417C232.979 286.762 230.092 287.062 227.545 288.268C224.997 289.474 222.942 291.513 221.722 294.044C220.503 296.575 220.192 299.446 220.843 302.177C221.494 304.908 223.066 307.335 225.298 309.052C227.529 310.77 230.285 311.674 233.106 311.614C235.927 311.554 238.642 310.534 240.798 308.723C242.954 306.913 244.42 304.421 244.953 301.665H232.642L236.253 297.089H239.43L249.673 297.102C249.673 297.165 249.673 297.229 249.683 297.293C249.702 297.736 249.72 298.172 249.72 298.592Z" fill="#2A3659" fill-opacity="0.1"/>
<path d="M104.176 395.023V410.202H99.7266V401.206L89.0737 414.162H85.6964L75.0027 401.206V423.621L70.5361 427.403L70.5234 423.331V395.023H75.0252L87.3724 409.693L99.7295 395.023H104.176Z" fill="#2A3659" fill-opacity="0.1"/>
<path d="M118.694 428.92C118.694 429.949 118.63 430.977 118.501 431.999C117.96 435.837 116.1 439.371 113.235 441.999C110.371 444.627 106.68 446.186 102.79 446.411C98.9007 446.636 95.0527 445.514 91.9012 443.235C88.7498 440.955 86.4895 437.66 85.5049 433.91C84.5204 430.159 84.8725 426.185 86.5013 422.664C88.1301 419.142 90.9349 416.291 94.4386 414.596C97.9422 412.9 101.928 412.464 105.718 413.363C109.508 414.262 112.868 416.439 115.226 419.525L111.593 422.198C109.874 419.972 107.439 418.401 104.696 417.746C101.952 417.09 99.0661 417.391 96.5184 418.596C93.9706 419.802 91.9155 421.841 90.6959 424.372C89.4763 426.903 89.1659 429.774 89.8166 432.505C90.4672 435.236 92.0395 437.663 94.2712 439.381C96.5029 441.098 99.259 442.002 102.08 441.942C104.9 441.882 107.615 440.862 109.771 439.051C111.927 437.241 113.394 434.749 113.927 431.993H101.616L105.226 427.417H108.403L118.647 427.43C118.647 427.493 118.647 427.557 118.657 427.621C118.675 428.064 118.694 428.5 118.694 428.92Z" fill="#2A3659" fill-opacity="0.1"/>
<path d="M235.203 394.734V409.913H230.753V400.917L220.1 413.873H216.723L206.029 400.917V423.331L201.562 427.114L201.55 423.041V394.734H206.052L218.399 409.404L230.756 394.734H235.203Z" fill="#2A3659" fill-opacity="0.1"/>
<path d="M249.72 428.631C249.72 429.66 249.656 430.688 249.527 431.709C248.987 435.548 247.126 439.082 244.262 441.71C241.397 444.338 237.706 445.897 233.817 446.122C229.927 446.347 226.079 445.225 222.928 442.946C219.776 440.666 217.516 437.371 216.531 433.621C215.547 429.87 215.899 425.896 217.528 422.375C219.156 418.853 221.961 416.002 225.465 414.307C228.969 412.611 232.955 412.175 236.745 413.074C240.535 413.973 243.895 416.15 246.253 419.236L242.62 421.909C240.9 419.683 238.466 418.112 235.722 417.457C232.979 416.801 230.092 417.101 227.545 418.307C224.997 419.513 222.942 421.552 221.722 424.083C220.503 426.614 220.192 429.485 220.843 432.216C221.494 434.947 223.066 437.374 225.298 439.091C227.529 440.809 230.285 441.713 233.106 441.653C235.927 441.593 238.642 440.573 240.798 438.762C242.954 436.952 244.42 434.46 244.953 431.704H232.642L236.253 427.128H239.43L249.673 427.141C249.673 427.204 249.673 427.268 249.683 427.332C249.702 427.775 249.72 428.211 249.72 428.631Z" fill="#2A3659" fill-opacity="0.1"/>
<path d="M104.176 524.977V540.155H99.7266V531.159L89.0737 544.116H85.6964L75.0027 531.159V553.574L70.5361 557.356L70.5234 553.284V524.977H75.0252L87.3724 539.646L99.7295 524.977H104.176Z" fill="#2A3659" fill-opacity="0.1"/>
<path d="M118.694 558.873C118.694 559.902 118.63 560.931 118.501 561.952C117.96 565.791 116.1 569.324 113.235 571.952C110.371 574.58 106.68 576.139 102.79 576.364C98.9007 576.59 95.0527 575.467 91.9012 573.188C88.7498 570.908 86.4895 567.613 85.5049 563.863C84.5204 560.112 84.8725 556.138 86.5013 552.617C88.1301 549.096 90.9349 546.244 94.4386 544.549C97.9422 542.853 101.928 542.418 105.718 543.316C109.508 544.215 112.868 546.392 115.226 549.478L111.593 552.151C109.874 549.926 107.439 548.354 104.696 547.699C101.952 547.043 99.0661 547.344 96.5184 548.55C93.9706 549.755 91.9155 551.794 90.6959 554.325C89.4763 556.856 89.1659 559.727 89.8166 562.458C90.4672 565.19 92.0395 567.616 94.2712 569.334C96.5029 571.051 99.259 571.955 102.08 571.895C104.9 571.835 107.615 570.815 109.771 569.004C111.927 567.194 113.394 564.703 113.927 561.946H101.616L105.226 557.37H108.403L118.647 557.383C118.647 557.446 118.647 557.51 118.657 557.575C118.675 558.017 118.694 558.453 118.694 558.873Z" fill="#2A3659" fill-opacity="0.1"/>
<path d="M104.176 655.008V670.186H99.7266V661.19L89.0737 674.147H85.6964L75.0027 661.19V683.605L70.5361 687.388L70.5234 683.315V655.008H75.0252L87.3724 669.678L99.7295 655.008H104.176Z" fill="#2A3659" fill-opacity="0.1"/>
<path d="M118.694 688.904C118.694 689.934 118.63 690.962 118.501 691.983C117.96 695.822 116.1 699.356 113.235 701.983C110.371 704.611 106.68 706.17 102.79 706.396C98.9007 706.621 95.0527 705.498 91.9012 703.219C88.7498 700.94 86.4895 697.644 85.5049 693.894C84.5204 690.143 84.8725 686.169 86.5013 682.648C88.1301 679.127 90.9349 676.276 94.4386 674.58C97.9422 672.884 101.928 672.449 105.718 673.348C109.508 674.246 112.868 676.424 115.226 679.509L111.593 682.182C109.874 679.957 107.439 678.385 104.696 677.73C101.952 677.075 99.0661 677.375 96.5184 678.581C93.9706 679.787 91.9155 681.825 90.6959 684.356C89.4763 686.888 89.1659 689.758 89.8166 692.49C90.4672 695.221 92.0395 697.648 94.2712 699.365C96.5029 701.082 99.259 701.986 102.08 701.927C104.9 701.867 107.615 700.846 109.771 699.036C111.927 697.225 113.394 694.734 113.927 691.977H101.616L105.226 687.402H108.403L118.647 687.414C118.647 687.477 118.647 687.541 118.657 687.606C118.675 688.048 118.694 688.485 118.694 688.904Z" fill="#2A3659" fill-opacity="0.1"/>
<path d="M104.176 785.047V800.225H99.7266V791.229L89.0737 804.186H85.6964L75.0027 791.229V813.644L70.5361 817.427L70.5234 813.354V785.047H75.0252L87.3724 799.717L99.7295 785.047H104.176Z" fill="#2A3659" fill-opacity="0.1"/>
<path d="M118.694 818.943C118.694 819.973 118.63 821.001 118.501 822.022C117.96 825.861 116.1 829.395 113.235 832.022C110.371 834.65 106.68 836.209 102.79 836.435C98.9007 836.66 95.0527 835.537 91.9012 833.258C88.7498 830.979 86.4895 827.684 85.5049 823.933C84.5204 820.183 84.8725 816.209 86.5013 812.687C88.1301 809.166 90.9349 806.315 94.4386 804.619C97.9422 802.923 101.928 802.488 105.718 803.387C109.508 804.285 112.868 806.463 115.226 809.548L111.593 812.221C109.874 809.996 107.439 808.424 104.696 807.769C101.952 807.114 99.0661 807.414 96.5184 808.62C93.9706 809.826 91.9155 811.864 90.6959 814.395C89.4763 816.927 89.1659 819.797 89.8166 822.529C90.4672 825.26 92.0395 827.687 94.2712 829.404C96.5029 831.121 99.259 832.026 102.08 831.966C104.9 831.906 107.615 830.885 109.771 829.075C111.927 827.264 113.394 824.773 113.927 822.016H101.616L105.226 817.441H108.403L118.647 817.453C118.647 817.516 118.647 817.581 118.657 817.645C118.675 818.087 118.694 818.524 118.694 818.943Z" fill="#2A3659" fill-opacity="0.1"/>
<path d="M235.203 524.766V539.944H230.753V530.948L220.1 543.905H216.723L206.029 530.948V553.363L201.562 557.145L201.55 553.073V524.766H206.052L218.399 539.435L230.756 524.766H235.203Z" fill="#2A3659" fill-opacity="0.1"/>
<path d="M249.72 558.662C249.72 559.691 249.656 560.72 249.527 561.741C248.987 565.58 247.126 569.114 244.262 571.741C241.397 574.369 237.706 575.928 233.817 576.153C229.927 576.379 226.079 575.256 222.928 572.977C219.776 570.698 217.516 567.402 216.531 563.652C215.547 559.901 215.899 555.927 217.528 552.406C219.156 548.885 221.961 546.034 225.465 544.338C228.969 542.642 232.955 542.207 236.745 543.105C240.535 544.004 243.895 546.182 246.253 549.267L242.62 551.94C240.9 549.715 238.466 548.143 235.722 547.488C232.979 546.832 230.092 547.133 227.545 548.339C224.997 549.545 222.942 551.583 221.722 554.114C220.503 556.645 220.192 559.516 220.843 562.247C221.494 564.979 223.066 567.405 225.298 569.123C227.529 570.84 230.285 571.744 233.106 571.684C235.927 571.624 238.642 570.604 240.798 568.793C242.954 566.983 244.42 564.492 244.953 561.735H232.642L236.253 557.159H239.43L249.673 557.172C249.673 557.235 249.673 557.299 249.683 557.364C249.702 557.806 249.72 558.242 249.72 558.662Z" fill="#2A3659" fill-opacity="0.1"/>
<path d="M235.203 654.797V669.975H230.753V660.979L220.1 673.936H216.723L206.029 660.979V683.394L201.562 687.177L201.55 683.104V654.797H206.052L218.399 669.467L230.756 654.797H235.203Z" fill="#2A3659" fill-opacity="0.1"/>
<path d="M249.72 688.693C249.72 689.723 249.656 690.751 249.527 691.772C248.987 695.611 247.126 699.145 244.262 701.772C241.397 704.4 237.706 705.959 233.817 706.185C229.927 706.41 226.079 705.287 222.928 703.008C219.776 700.729 217.516 697.434 216.531 693.683C215.547 689.933 215.899 685.959 217.528 682.437C219.156 678.916 221.961 676.065 225.465 674.369C228.969 672.673 232.955 672.238 236.745 673.137C240.535 674.035 243.895 676.213 246.253 679.298L242.62 681.971C240.9 679.746 238.466 678.174 235.722 677.519C232.979 676.864 230.092 677.164 227.545 678.37C224.997 679.576 222.942 681.614 221.722 684.145C220.503 686.677 220.192 689.547 220.843 692.279C221.494 695.01 223.066 697.437 225.298 699.154C227.529 700.871 230.285 701.776 233.106 701.716C235.927 701.656 238.642 700.635 240.798 698.825C242.954 697.014 244.42 694.523 244.953 691.766H232.642L236.253 687.191H239.43L249.673 687.203C249.673 687.266 249.673 687.331 249.683 687.395C249.702 687.837 249.72 688.274 249.72 688.693Z" fill="#2A3659" fill-opacity="0.1"/>
<path d="M235.203 784.836V800.014H230.753V791.019L220.1 803.975H216.723L206.029 791.019V813.433L201.562 817.216L201.55 813.143V784.836H206.052L218.399 799.506L230.756 784.836H235.203Z" fill="#2A3659" fill-opacity="0.1"/>
<path d="M249.72 818.733C249.72 819.762 249.656 820.79 249.527 821.811C248.987 825.65 247.126 829.184 244.262 831.812C241.397 834.439 237.706 835.998 233.817 836.224C229.927 836.449 226.079 835.326 222.928 833.047C219.776 830.768 217.516 827.473 216.531 823.722C215.547 819.972 215.899 815.998 217.528 812.476C219.156 808.955 221.961 806.104 225.465 804.408C228.969 802.712 232.955 802.277 236.745 803.176C240.535 804.074 243.895 806.252 246.253 809.338L242.62 812.01C240.9 809.785 238.466 808.213 235.722 807.558C232.979 806.903 230.092 807.203 227.545 808.409C224.997 809.615 222.942 811.653 221.722 814.185C220.503 816.716 220.192 819.586 220.843 822.318C221.494 825.049 223.066 827.476 225.298 829.193C227.529 830.91 230.285 831.815 233.106 831.755C235.927 831.695 238.642 830.674 240.798 828.864C242.954 827.053 244.42 824.562 244.953 821.805H232.642L236.253 817.23H239.43L249.673 817.242C249.673 817.305 249.673 817.37 249.683 817.434C249.702 817.876 249.72 818.313 249.72 818.733Z" fill="#2A3659" fill-opacity="0.1"/>
<path d="M169.501 199.141V214.319H165.051V205.323L154.398 218.28H151.021L140.327 205.323V227.738L135.86 231.52L135.848 227.448V199.141H140.349L152.697 213.81L165.054 199.141H169.501Z" fill="#2A3659" fill-opacity="0.1"/>
<path d="M184.018 233.037C184.018 234.066 183.954 235.095 183.825 236.116C183.285 239.955 181.424 243.489 178.56 246.116C175.695 248.744 172.004 250.303 168.115 250.528C164.225 250.754 160.377 249.631 157.225 247.352C154.074 245.073 151.814 241.777 150.829 238.027C149.845 234.276 150.197 230.302 151.825 226.781C153.454 223.26 156.259 220.409 159.763 218.713C163.266 217.017 167.252 216.582 171.042 217.48C174.833 218.379 178.193 220.557 180.551 223.642L176.918 226.315C175.198 224.09 172.763 222.518 170.02 221.863C167.277 221.207 164.39 221.508 161.843 222.714C159.295 223.92 157.24 225.958 156.02 228.489C154.8 231.02 154.49 233.891 155.141 236.622C155.791 239.354 157.364 241.78 159.595 243.498C161.827 245.215 164.583 246.119 167.404 246.059C170.225 245.999 172.939 244.979 175.095 243.168C177.251 241.358 178.718 238.867 179.251 236.11H166.94L170.55 231.534H173.728L183.971 231.547C183.971 231.61 183.971 231.674 183.981 231.739C183.999 232.181 184.018 232.617 184.018 233.037Z" fill="#2A3659" fill-opacity="0.1"/>
<path d="M294.284 199.68V214.858H289.834V205.862L279.181 218.819H275.804L265.11 205.862V228.277L260.643 232.059L260.631 227.987V199.68H265.133L277.48 214.35L289.837 199.68H294.284Z" fill="#2A3659" fill-opacity="0.1"/>
<path d="M308.801 233.576C308.801 234.605 308.737 235.634 308.608 236.655C308.068 240.494 306.207 244.028 303.343 246.655C300.478 249.283 296.787 250.842 292.898 251.067C289.008 251.293 285.16 250.17 282.009 247.891C278.857 245.612 276.597 242.316 275.612 238.566C274.628 234.815 274.98 230.841 276.609 227.32C278.237 223.799 281.042 220.948 284.546 219.252C288.05 217.556 292.036 217.121 295.826 218.019C299.616 218.918 302.976 221.096 305.334 224.181L301.701 226.854C299.981 224.629 297.547 223.057 294.803 222.402C292.06 221.746 289.174 222.047 286.626 223.253C284.078 224.459 282.023 226.497 280.803 229.028C279.584 231.559 279.273 234.43 279.924 237.161C280.575 239.893 282.147 242.319 284.379 244.037C286.61 245.754 289.366 246.658 292.187 246.598C295.008 246.538 297.723 245.518 299.879 243.708C302.035 241.897 303.501 239.406 304.034 236.649H291.723L295.334 232.073H298.511L308.755 232.086C308.755 232.149 308.755 232.213 308.764 232.278C308.783 232.72 308.801 233.157 308.801 233.576Z" fill="#2A3659" fill-opacity="0.1"/>
<path d="M169.501 329.484V344.663H165.051V335.667L154.398 348.623H151.021L140.327 335.667V358.081L135.86 361.864L135.848 357.791V329.484H140.349L152.697 344.154L165.054 329.484H169.501Z" fill="#2A3659" fill-opacity="0.1"/>
<path d="M184.018 363.381C184.018 364.41 183.954 365.438 183.825 366.459C183.285 370.298 181.424 373.832 178.56 376.46C175.695 379.088 172.004 380.647 168.115 380.872C164.225 381.097 160.377 379.975 157.225 377.696C154.074 375.416 151.814 372.121 150.829 368.371C149.845 364.62 150.197 360.646 151.825 357.125C153.454 353.603 156.259 350.752 159.763 349.057C163.266 347.361 167.252 346.925 171.042 347.824C174.833 348.723 178.193 350.9 180.551 353.986L176.918 356.659C175.198 354.433 172.763 352.862 170.02 352.207C167.277 351.551 164.39 351.851 161.843 353.057C159.295 354.263 157.24 356.302 156.02 358.833C154.8 361.364 154.49 364.235 155.141 366.966C155.791 369.697 157.364 372.124 159.595 373.841C161.827 375.559 164.583 376.463 167.404 376.403C170.225 376.343 172.939 375.323 175.095 373.512C177.251 371.702 178.718 369.21 179.251 366.454H166.94L170.55 361.878H173.728L183.971 361.891C183.971 361.954 183.971 362.018 183.981 362.082C183.999 362.525 184.018 362.961 184.018 363.381Z" fill="#2A3659" fill-opacity="0.1"/>
<path d="M292.282 329.711V344.889H287.832V335.894L277.179 348.85H273.802L263.108 335.894V358.308L258.642 362.091L258.629 358.018V329.711H263.131L275.478 344.381L287.835 329.711H292.282Z" fill="#2A3659" fill-opacity="0.1"/>
<path d="M306.799 363.608C306.8 364.637 306.735 365.665 306.606 366.686C306.066 370.525 304.205 374.059 301.341 376.687C298.476 379.314 294.785 380.873 290.896 381.099C287.006 381.324 283.158 380.201 280.007 377.922C276.855 375.643 274.595 372.348 273.61 368.597C272.626 364.847 272.978 360.873 274.607 357.351C276.236 353.83 279.04 350.979 282.544 349.283C286.048 347.587 290.034 347.152 293.824 348.051C297.614 348.949 300.974 351.127 303.332 354.213L299.699 356.885C297.979 354.66 295.545 353.088 292.801 352.433C290.058 351.778 287.172 352.078 284.624 353.284C282.076 354.49 280.021 356.528 278.801 359.06C277.582 361.591 277.271 364.461 277.922 367.193C278.573 369.924 280.145 372.351 282.377 374.068C284.608 375.785 287.364 376.69 290.185 376.63C293.006 376.57 295.721 375.549 297.877 373.739C300.033 371.928 301.499 369.437 302.032 366.68H289.721L293.332 362.105H296.509L306.753 362.117C306.753 362.18 306.753 362.245 306.762 362.309C306.781 362.751 306.799 363.188 306.799 363.608Z" fill="#2A3659" fill-opacity="0.1"/>
<path d="M169.419 460V475.178H164.969V466.183L154.316 479.139H150.939L140.245 466.183V488.597L135.778 492.38L135.766 488.307V460H140.267L152.615 474.67L164.972 460H169.419Z" fill="#2A3659" fill-opacity="0.1"/>
<path d="M183.936 493.897C183.936 494.926 183.872 495.954 183.743 496.975C183.203 500.814 181.342 504.348 178.478 506.976C175.613 509.603 171.922 511.162 168.033 511.388C164.143 511.613 160.295 510.491 157.143 508.211C153.992 505.932 151.732 502.637 150.747 498.886C149.763 495.136 150.115 491.162 151.743 487.64C153.372 484.119 156.177 481.268 159.681 479.572C163.184 477.877 167.17 477.441 170.96 478.34C174.751 479.238 178.11 481.416 180.469 484.502L176.836 487.174C175.116 484.949 172.681 483.378 169.938 482.722C167.195 482.067 164.308 482.367 161.761 483.573C159.213 484.779 157.158 486.817 155.938 489.349C154.718 491.88 154.408 494.75 155.059 497.482C155.709 500.213 157.282 502.64 159.513 504.357C161.745 506.074 164.501 506.979 167.322 506.919C170.143 506.859 172.857 505.838 175.013 504.028C177.169 502.217 178.636 499.726 179.169 496.97H166.858L170.468 492.394H173.646L183.889 492.406C183.889 492.469 183.889 492.534 183.899 492.598C183.917 493.04 183.936 493.477 183.936 493.897Z" fill="#2A3659" fill-opacity="0.1"/>
<path d="M294.284 459.75V474.928H289.834V465.933L279.181 478.889H275.804L265.11 465.933V488.347L260.643 492.13L260.631 488.057V459.75H265.133L277.48 474.42L289.837 459.75H294.284Z" fill="#2A3659" fill-opacity="0.1"/>
<path d="M308.801 493.647C308.801 494.676 308.737 495.704 308.608 496.725C308.068 500.564 306.207 504.098 303.343 506.726C300.478 509.353 296.787 510.912 292.898 511.138C289.008 511.363 285.16 510.241 282.009 507.961C278.857 505.682 276.597 502.387 275.612 498.636C274.628 494.886 274.98 490.912 276.609 487.39C278.237 483.869 281.042 481.018 284.546 479.322C288.05 477.627 292.036 477.191 295.826 478.09C299.616 478.988 302.976 481.166 305.334 484.252L301.701 486.924C299.981 484.699 297.547 483.128 294.803 482.472C292.06 481.817 289.174 482.117 286.626 483.323C284.078 484.529 282.023 486.567 280.803 489.099C279.584 491.63 279.273 494.5 279.924 497.232C280.575 499.963 282.147 502.39 284.379 504.107C286.61 505.824 289.366 506.729 292.187 506.669C295.008 506.609 297.723 505.588 299.879 503.778C302.035 501.967 303.501 499.476 304.034 496.72H291.723L295.334 492.144H298.511L308.755 492.156C308.755 492.219 308.755 492.284 308.764 492.348C308.783 492.79 308.801 493.227 308.801 493.647Z" fill="#2A3659" fill-opacity="0.1"/>
<path d="M169.419 589.953V605.132H164.969V596.136L154.316 609.092H150.939L140.245 596.136V618.55L135.778 622.333L135.766 618.26V589.953H140.267L152.615 604.623L164.972 589.953H169.419Z" fill="#2A3659" fill-opacity="0.1"/>
<path d="M183.936 623.85C183.936 624.879 183.872 625.907 183.743 626.928C183.203 630.767 181.342 634.301 178.478 636.929C175.613 639.556 171.922 641.116 168.033 641.341C164.143 641.566 160.295 640.444 157.143 638.164C153.992 635.885 151.732 632.59 150.747 628.839C149.763 625.089 150.115 621.115 151.743 617.593C153.372 614.072 156.177 611.221 159.681 609.525C163.184 607.83 167.17 607.394 170.96 608.293C174.751 609.192 178.11 611.369 180.469 614.455L176.836 617.127C175.116 614.902 172.681 613.331 169.938 612.675C167.195 612.02 164.308 612.32 161.761 613.526C159.213 614.732 157.158 616.771 155.938 619.302C154.718 621.833 154.408 624.704 155.059 627.435C155.709 630.166 157.282 632.593 159.513 634.31C161.745 636.028 164.501 636.932 167.322 636.872C170.143 636.812 172.857 635.792 175.013 633.981C177.169 632.17 178.636 629.679 179.169 626.923H166.858L170.468 622.347H173.646L183.889 622.359C183.889 622.422 183.889 622.487 183.899 622.551C183.917 622.993 183.936 623.43 183.936 623.85Z" fill="#2A3659" fill-opacity="0.1"/>
<path d="M294.284 589.781V604.96H289.834V595.964L279.181 608.92H275.804L265.11 595.964V618.378L260.643 622.161L260.631 618.088V589.781H265.133L277.48 604.451L289.837 589.781H294.284Z" fill="#2A3659" fill-opacity="0.1"/>
<path d="M308.801 623.678C308.801 624.707 308.737 625.735 308.608 626.756C308.068 630.595 306.207 634.129 303.343 636.757C300.478 639.385 296.787 640.944 292.898 641.169C289.008 641.394 285.16 640.272 282.009 637.992C278.857 635.713 276.597 632.418 275.612 628.667C274.628 624.917 274.98 620.943 276.609 617.422C278.237 613.9 281.042 611.049 284.546 609.353C288.05 607.658 292.036 607.222 295.826 608.121C299.616 609.02 302.976 611.197 305.334 614.283L301.701 616.956C299.981 614.73 297.547 613.159 294.803 612.503C292.06 611.848 289.174 612.148 286.626 613.354C284.078 614.56 282.023 616.599 280.803 619.13C279.584 621.661 279.273 624.532 279.924 627.263C280.575 629.994 282.147 632.421 284.379 634.138C286.61 635.856 289.366 636.76 292.187 636.7C295.008 636.64 297.723 635.62 299.879 633.809C302.035 631.999 303.501 629.507 304.034 626.751H291.723L295.334 622.175H298.511L308.755 622.188C308.755 622.251 308.755 622.315 308.764 622.379C308.783 622.821 308.801 623.258 308.801 623.678Z" fill="#2A3659" fill-opacity="0.1"/>
<path d="M169.419 719.984V735.163H164.969V726.167L154.316 739.123H150.939L140.245 726.167V748.581L135.778 752.364L135.766 748.291V719.984H140.267L152.615 734.654L164.972 719.984H169.419Z" fill="#2A3659" fill-opacity="0.1"/>
<path d="M183.936 753.881C183.936 754.91 183.872 755.938 183.743 756.959C183.203 760.798 181.342 764.332 178.478 766.96C175.613 769.588 171.922 771.147 168.033 771.372C164.143 771.597 160.295 770.475 157.143 768.196C153.992 765.916 151.732 762.621 150.747 758.871C149.763 755.12 150.115 751.146 151.743 747.625C153.372 744.103 156.177 741.252 159.681 739.557C163.184 737.861 167.17 737.425 170.96 738.324C174.751 739.223 178.11 741.4 180.469 744.486L176.836 747.159C175.116 744.933 172.681 743.362 169.938 742.707C167.195 742.051 164.308 742.351 161.761 743.557C159.213 744.763 157.158 746.802 155.938 749.333C154.718 751.864 154.408 754.735 155.059 757.466C155.709 760.197 157.282 762.624 159.513 764.341C161.745 766.059 164.501 766.963 167.322 766.903C170.143 766.843 172.857 765.823 175.013 764.012C177.169 762.202 178.636 759.71 179.169 756.954H166.858L170.468 752.378H173.646L183.889 752.391C183.889 752.454 183.889 752.518 183.899 752.582C183.917 753.025 183.936 753.461 183.936 753.881Z" fill="#2A3659" fill-opacity="0.1"/>
<path d="M296.287 719.82V734.999H291.837V726.003L281.184 738.959H277.807L267.113 726.003V748.417L262.646 752.2L262.634 748.127V719.82H267.136L279.483 734.49L291.84 719.82H296.287Z" fill="#2A3659" fill-opacity="0.1"/>
<path d="M310.804 753.717C310.804 754.746 310.74 755.774 310.611 756.795C310.071 760.634 308.21 764.168 305.346 766.796C302.481 769.424 298.79 770.983 294.901 771.208C291.011 771.433 287.163 770.311 284.012 768.032C280.86 765.752 278.6 762.457 277.615 758.706C276.631 754.956 276.983 750.982 278.612 747.461C280.24 743.939 283.045 741.088 286.549 739.393C290.053 737.697 294.039 737.261 297.829 738.16C301.619 739.059 304.979 741.236 307.337 744.322L303.704 746.995C301.984 744.769 299.55 743.198 296.806 742.542C294.063 741.887 291.176 742.187 288.629 743.393C286.081 744.599 284.026 746.638 282.806 749.169C281.587 751.7 281.276 754.571 281.927 757.302C282.578 760.033 284.15 762.46 286.382 764.177C288.613 765.895 291.369 766.799 294.19 766.739C297.011 766.679 299.726 765.659 301.882 763.848C304.038 762.038 305.504 759.546 306.037 756.79H293.726L297.336 752.214H300.514L310.757 752.227C310.757 752.29 310.757 752.354 310.767 752.418C310.786 752.861 310.804 753.297 310.804 753.717Z" fill="#2A3659" fill-opacity="0.1"/>
<path d="M39.0144 199.141V214.319H34.5645V205.323L23.9116 218.28H20.5343L9.84063 205.323V227.738L5.37396 231.52L5.36133 227.448V199.141H9.86309L22.2103 213.81L34.5673 199.141H39.0144Z" fill="#2A3659" fill-opacity="0.1"/>
<path d="M53.5314 233.037C53.5319 234.066 53.4676 235.095 53.3387 236.116C52.7983 239.955 50.9376 243.489 48.0732 246.116C45.2089 248.744 41.5179 250.303 37.6282 250.528C33.7386 250.754 29.8906 249.631 26.7391 247.352C23.5877 245.073 21.3273 241.777 20.3428 238.027C19.3583 234.276 19.7104 230.302 21.3392 226.781C22.9679 223.26 25.7728 220.409 29.2765 218.713C32.7801 217.017 36.7661 216.582 40.5562 217.48C44.3462 218.379 47.7062 220.557 50.0643 223.642L46.4313 226.315C44.7117 224.09 42.2771 222.518 39.5337 221.863C36.7903 221.207 33.904 221.508 31.3562 222.714C28.8085 223.92 26.7534 225.958 25.5338 228.489C24.3142 231.02 24.0038 233.891 24.6544 236.622C25.3051 239.354 26.8774 241.78 29.1091 243.498C31.3408 245.215 34.0969 246.119 36.9176 246.059C39.7384 245.999 42.4532 244.979 44.6091 243.168C46.7651 241.358 48.2319 238.867 48.7647 236.11H36.4535L40.064 231.534H43.2413L53.485 231.547C53.485 231.61 53.485 231.674 53.4948 231.739C53.5131 232.181 53.5314 232.617 53.5314 233.037Z" fill="#2A3659" fill-opacity="0.1"/>
<path d="M39.0144 329.484V344.663H34.5645V335.667L23.9116 348.623H20.5343L9.84063 335.667V358.081L5.37396 361.864L5.36133 357.791V329.484H9.86309L22.2103 344.154L34.5673 329.484H39.0144Z" fill="#2A3659" fill-opacity="0.1"/>
<path d="M53.5314 363.381C53.5319 364.41 53.4676 365.438 53.3387 366.459C52.7983 370.298 50.9376 373.832 48.0732 376.46C45.2089 379.088 41.5179 380.647 37.6282 380.872C33.7386 381.097 29.8906 379.975 26.7391 377.696C23.5877 375.416 21.3273 372.121 20.3428 368.371C19.3583 364.62 19.7104 360.646 21.3392 357.125C22.9679 353.603 25.7728 350.752 29.2765 349.057C32.7801 347.361 36.7661 346.925 40.5562 347.824C44.3462 348.723 47.7062 350.9 50.0643 353.986L46.4313 356.659C44.7117 354.433 42.2771 352.862 39.5337 352.207C36.7903 351.551 33.904 351.851 31.3562 353.057C28.8085 354.263 26.7534 356.302 25.5338 358.833C24.3142 361.364 24.0038 364.235 24.6544 366.966C25.3051 369.697 26.8774 372.124 29.1091 373.841C31.3408 375.559 34.0969 376.463 36.9176 376.403C39.7384 376.343 42.4532 375.323 44.6091 373.512C46.7651 371.702 48.2319 369.21 48.7647 366.454H36.4535L40.064 361.878H43.2413L53.485 361.891C53.485 361.954 53.485 362.018 53.4948 362.082C53.5131 362.525 53.5314 362.961 53.5314 363.381Z" fill="#2A3659" fill-opacity="0.1"/>
<path d="M38.9323 460V475.178H34.4825V466.183L23.8296 479.139H20.4522L9.7586 466.183V488.597L5.29193 492.38L5.2793 488.307V460H9.78106L22.1283 474.67L34.4853 460H38.9323Z" fill="#2A3659" fill-opacity="0.1"/>
<path d="M53.4494 493.897C53.4499 494.926 53.3855 495.954 53.2567 496.975C52.7162 500.814 50.8555 504.348 47.9912 506.976C45.1268 509.603 41.4358 511.162 37.5462 511.388C33.6565 511.613 29.8086 510.491 26.6571 508.211C23.5056 505.932 21.2453 502.637 20.2608 498.886C19.2763 495.136 19.6283 491.162 21.2571 487.64C22.8859 484.119 25.6908 481.268 29.1944 479.572C32.6981 477.877 36.6841 477.441 40.4741 478.34C44.2642 479.238 47.6242 481.416 49.9823 484.502L46.3493 487.174C44.6297 484.949 42.1951 483.378 39.4517 482.722C36.7083 482.067 33.822 482.367 31.2742 483.573C28.7265 484.779 26.6714 486.817 25.4518 489.349C24.2321 491.88 23.9218 494.75 24.5724 497.482C25.2231 500.213 26.7954 502.64 29.0271 504.357C31.2587 506.074 34.0149 506.979 36.8356 506.919C39.6563 506.859 42.3711 505.838 44.5271 504.028C46.6831 502.217 48.1498 499.726 48.6827 496.97H36.3715L39.982 492.394H43.1593L53.403 492.406C53.403 492.469 53.403 492.534 53.4128 492.598C53.4311 493.04 53.4494 493.477 53.4494 493.897Z" fill="#2A3659" fill-opacity="0.1"/>
<path d="M38.9323 589.953V605.132H34.4825V596.136L23.8296 609.092H20.4522L9.7586 596.136V618.55L5.29193 622.333L5.2793 618.26V589.953H9.78106L22.1283 604.623L34.4853 589.953H38.9323Z" fill="#2A3659" fill-opacity="0.1"/>
<path d="M53.4494 623.85C53.4499 624.879 53.3855 625.907 53.2567 626.928C52.7162 630.767 50.8555 634.301 47.9912 636.929C45.1268 639.556 41.4358 641.116 37.5462 641.341C33.6565 641.566 29.8086 640.444 26.6571 638.164C23.5056 635.885 21.2453 632.59 20.2608 628.839C19.2763 625.089 19.6283 621.115 21.2571 617.593C22.8859 614.072 25.6908 611.221 29.1944 609.525C32.6981 607.83 36.6841 607.394 40.4741 608.293C44.2642 609.192 47.6242 611.369 49.9823 614.455L46.3493 617.127C44.6297 614.902 42.1951 613.331 39.4517 612.675C36.7083 612.02 33.822 612.32 31.2742 613.526C28.7265 614.732 26.6714 616.771 25.4518 619.302C24.2321 621.833 23.9218 624.704 24.5724 627.435C25.2231 630.166 26.7954 632.593 29.0271 634.31C31.2587 636.028 34.0149 636.932 36.8356 636.872C39.6563 636.812 42.3711 635.792 44.5271 633.981C46.6831 632.17 48.1498 629.679 48.6827 626.923H36.3715L39.982 622.347H43.1593L53.403 622.359C53.403 622.422 53.403 622.487 53.4128 622.551C53.4311 622.993 53.4494 623.43 53.4494 623.85Z" fill="#2A3659" fill-opacity="0.1"/>
<path d="M38.9323 719.984V735.163H34.4825V726.167L23.8296 739.123H20.4522L9.7586 726.167V748.581L5.29193 752.364L5.2793 748.291V719.984H9.78106L22.1283 734.654L34.4853 719.984H38.9323Z" fill="#2A3659" fill-opacity="0.1"/>
<path d="M53.4494 753.881C53.4499 754.91 53.3855 755.938 53.2567 756.959C52.7162 760.798 50.8555 764.332 47.9912 766.96C45.1268 769.588 41.4358 771.147 37.5462 771.372C33.6565 771.597 29.8086 770.475 26.6571 768.196C23.5056 765.916 21.2453 762.621 20.2608 758.871C19.2763 755.12 19.6283 751.146 21.2571 747.625C22.8859 744.103 25.6908 741.252 29.1944 739.557C32.6981 737.861 36.6841 737.425 40.4741 738.324C44.2642 739.223 47.6242 741.4 49.9823 744.486L46.3493 747.159C44.6297 744.933 42.1951 743.362 39.4517 742.707C36.7083 742.051 33.822 742.351 31.2742 743.557C28.7265 744.763 26.6714 746.802 25.4518 749.333C24.2321 751.864 23.9218 754.735 24.5724 757.466C25.2231 760.197 26.7954 762.624 29.0271 764.341C31.2587 766.059 34.0149 766.963 36.8356 766.903C39.6563 766.843 42.3711 765.823 44.5271 764.012C46.6831 762.202 48.1498 759.71 48.6827 756.954H36.3715L39.982 752.378H43.1593L53.403 752.391C53.403 752.454 53.403 752.518 53.4128 752.582C53.4311 753.025 53.4494 753.461 53.4494 753.881Z" fill="#2A3659" fill-opacity="0.1"/>
</svg>
