<svg width="40" height="31" viewBox="0 0 40 31" fill="none" xmlns="http://www.w3.org/2000/svg">
<path d="M35.3587 22.6783L1.14286 15.4995V6.52613L4.38095 7.34189L5.89206 10.7681L16.254 12.9707V0L20.5714 0.815766L26.5079 15.0917L37.3016 17.3758C38.1291 17.539 38.7857 17.8721 39.2714 18.3751C39.7571 18.8782 40 19.4424 40 20.0678C40 20.9652 39.5143 21.6858 38.5429 22.2296C37.5714 22.7735 36.5101 22.923 35.3587 22.6783ZM1.14286 30.9991C1.14286 30.9991 0 30.9991 0 29.9302C0 28.8612 1.14286 28.8612 1.14286 28.8612L38.0571 28.9992C38.0571 28.9992 39.0857 28.9302 39.0857 29.9991C39.0857 31.0681 38.0571 30.9991 38.0571 30.9991H1.14286Z" fill="#2A3659"/>
</svg>
