<svg width="40" height="31" viewBox="0 0 40 31" fill="none" xmlns="http://www.w3.org/2000/svg">
<path fill-rule="evenodd" clip-rule="evenodd" d="M0.930233 29.9667C0.930233 31 1.86047 31 1.86047 31H38.1395C38.1395 31 39.0698 31 39.0698 29.9667C39.0698 28.9333 38.0952 28.9333 38.0952 28.9333H1.86047C1.86047 28.9333 0.930233 28.9333 0.930233 29.9667Z" fill="#2A3659"/>
<path d="M5.71429 22.4126L0 13.6109L3.10777 13.0665L6.61654 15.8794L16.2406 13.5202L8.1203 1.08887L12.0301 0L25.7644 11.1609L35.7895 8.71097C36.8588 8.43875 37.8279 8.62023 38.6967 9.2554C39.5656 9.89058 40 10.7375 40 11.7961C40 12.4615 39.7744 13.0513 39.3233 13.5655C38.8722 14.0797 38.2957 14.4275 37.594 14.609L5.71429 22.4126Z" fill="#2A3659"/>
</svg>
