<svg width="20" height="16" viewBox="0 0 20 16" fill="none" xmlns="http://www.w3.org/2000/svg">
<path d="M1.05805 7.56895L8.03817 0.256448C8.14843 0.148808 8.29428 0.090209 8.44497 0.0929947C8.59566 0.0957794 8.73944 0.159733 8.84602 0.271381C8.95259 0.383029 9.01364 0.533654 9.01629 0.691525C9.01895 0.849394 8.96302 1.00218 8.86027 1.1177L2.87385 7.3902L18.5316 7.3902C18.6859 7.3902 18.8338 7.4544 18.9429 7.56868C19.052 7.68296 19.1133 7.83796 19.1133 7.99957C19.1133 8.16119 19.052 8.31619 18.9429 8.43047C18.8338 8.54475 18.6859 8.60895 18.5316 8.60895L2.87385 8.60895L8.86027 14.8815C8.96302 14.997 9.01895 15.1498 9.01629 15.3076C9.01364 15.4655 8.95259 15.6161 8.84602 15.7278C8.73944 15.8394 8.59566 15.9034 8.44497 15.9062C8.29428 15.9089 8.14843 15.8503 8.03817 15.7427L1.05805 8.4302C0.949125 8.31594 0.887941 8.16106 0.887941 7.99957C0.887941 7.83809 0.949125 7.68321 1.05805 7.56895Z" fill="#2A3659"/>
</svg>
