<svg width="167" height="19" viewBox="0 0 167 19" fill="none" xmlns="http://www.w3.org/2000/svg">
<path d="M92.3158 18.92C91.193 18.9248 90.0797 18.7168 89.0357 18.3071C88.0016 17.9007 87.0645 17.2845 86.2846 16.4979C85.4553 15.6504 84.8128 14.6412 84.398 13.5342C83.9373 12.3568 83.707 10.9988 83.707 9.46029C83.707 7.45026 84.095 5.74141 84.8709 4.33376C85.6469 2.9261 86.6824 1.85182 87.9776 1.11091C89.2988 0.365849 90.796 -0.0173486 92.3158 0.000602943C94.662 0.000602943 96.5063 0.543165 97.8487 1.62829C99.191 2.71341 100.09 4.2477 100.547 6.23115L97.0286 6.73593C96.6999 5.67739 96.1613 4.83049 95.4129 4.19523C94.6645 3.55997 93.7086 3.23849 92.5454 3.23079C91.3886 3.2147 90.426 3.46307 89.6578 3.9759C88.8896 4.48873 88.3126 5.21774 87.9268 6.16294C87.543 7.10464 87.3508 8.2062 87.3501 9.46764C87.3494 10.7291 87.5416 11.8215 87.9268 12.745C88.2704 13.6205 88.8727 14.3726 89.6547 14.9027C90.4228 15.4155 91.3854 15.6803 92.5422 15.6971C93.275 15.7243 94.0043 15.5862 94.6754 15.2931C95.3269 14.9966 95.8853 14.5306 96.2911 13.9446C96.7306 13.3303 97.0427 12.5439 97.2275 11.5854H94.341V8.93242H100.901C100.923 9.12482 100.936 9.31792 100.939 9.51171C100.948 9.78982 100.951 9.95038 100.951 9.99131C100.951 11.732 100.598 13.275 99.8929 14.6204C99.2143 15.9339 98.1737 17.0293 96.8921 17.7792C95.5963 18.5404 94.0709 18.9207 92.3158 18.92Z" fill="#2A3659"/>
<path d="M73.7762 15.1398V10.7752H69.3945V8.12746H73.7762V3.78906H76.4352V8.12746H80.7925V10.7752H76.4352V15.1398H73.7762Z" fill="#2A3659"/>
<path d="M37.9883 18.5476V0.382812H49.8931V3.58571H41.4282V7.46866H48.3673V10.6768H41.4335V15.3437H49.8984V18.5476H37.9883Z" fill="#2A3659"/>
<path d="M22.4141 18.5476V0.382812H34.3167V3.58571H25.8582V7.46866H32.7983V10.6768H25.8582V15.3437H34.3167V18.5476H22.4141Z" fill="#2A3659"/>
<path d="M0 18.5476V0.382812H3.09074L9.12196 12.4388L15.1532 0.382812H18.2439V18.5476H15.0273V7.69743L9.72613 18.5476H8.51249L3.22194 7.69743V18.5476H0Z" fill="#2A3659"/>
<path d="M157.601 18.5476V3.58571H151.854V0.382812H166.796L164.612 3.58571H161.046V18.5476H157.601Z" fill="#2A3659"/>
<path d="M137.803 18.5476V0.382812H149.706V3.58571H141.248V7.46866H148.184V10.6768H141.243V15.3437H149.702V18.5476H137.803Z" fill="#2A3659"/>
<path d="M122.223 18.5476V0.382812H134.126V3.58571H125.662V7.46866H132.606V10.6768H125.666V15.3437H134.131V18.5476H122.223Z" fill="#2A3659"/>
<path d="M104.621 18.5476V0.382812H112.321C112.497 0.382812 112.735 0.388759 113.036 0.400653C113.306 0.411026 113.574 0.438718 113.84 0.483558C114.929 0.651469 115.822 1.00863 116.518 1.55504C117.208 2.09332 117.74 2.80553 118.057 3.6172C118.396 4.50087 118.563 5.44022 118.55 6.38563C118.55 7.90732 118.169 9.20828 117.407 10.2885C116.645 11.3687 115.455 12.0351 113.835 12.2877L112.317 12.3926H108.069V18.5476H104.621ZM108.069 9.1887H112.173C112.348 9.1887 112.544 9.1803 112.755 9.16351C112.952 9.14759 113.147 9.11243 113.338 9.05856C113.754 8.96124 114.13 8.73876 114.414 8.42155C114.664 8.13342 114.845 7.79294 114.943 7.42563C115.138 6.74503 115.138 6.02413 114.943 5.34353C114.845 4.97622 114.664 4.63575 114.414 4.34761C114.13 4.03072 113.754 3.80831 113.338 3.7106C113.147 3.65673 112.952 3.62157 112.755 3.60565C112.543 3.58886 112.35 3.58047 112.173 3.58047H108.069V9.1887ZM114.908 18.5476L111.31 11.1564L114.856 10.4743L118.808 18.5476H114.908Z" fill="#2A3659"/>
<path d="M57.7956 18.5476V3.58571H52.0469V0.382812H66.9927L64.8235 3.58571H61.2429V18.5476H57.7956Z" fill="#2A3659"/>
</svg>
