<svg width="46" height="50" viewBox="0 0 46 50" fill="none" xmlns="http://www.w3.org/2000/svg">
<g clip-path="url(#clip0_4701_7822)">
<path d="M30.9419 0V14.8706H25.6053V8.13469L17.1127 19.2408H12.7589L5.3366 8.56346V26.2466L0 31.2045V0H5.9088L15.0359 13.133L25.0805 0H30.9419Z" fill="#2A3659"/>
<path d="M45.997 34.2055C46.0006 37.9634 44.6806 41.5996 42.2737 44.4625C39.8668 47.3253 36.5303 49.2275 32.8624 49.8282C29.1945 50.4288 25.435 49.6885 22.2578 47.7401C19.0807 45.7916 16.6936 42.7624 15.5245 39.1955C14.3554 35.6285 14.4807 31.757 15.878 28.275C17.2754 24.7931 19.8533 21.9283 23.1497 20.1942C26.4461 18.4601 30.2454 17.9702 33.8666 18.8122C37.4878 19.6542 40.6941 21.7731 42.9107 24.789L38.9497 28.4696C37.6646 26.5081 35.7594 25.0456 33.5458 24.3214C31.3321 23.5971 28.9409 23.6539 26.7633 24.4825C24.5857 25.3111 22.7506 26.8624 21.5579 28.8828C20.3653 30.9032 19.8858 33.273 20.1978 35.6048C20.5099 37.9365 21.595 40.0922 23.2757 41.7193C24.9564 43.3464 27.1333 44.3485 29.4504 44.5619C31.7674 44.7753 34.0875 44.1873 36.0311 42.894C37.9748 41.6007 39.4271 39.6787 40.1505 37.4423H29.2905L35.0407 32.0992H45.8621C45.9538 32.7974 45.9989 33.5011 45.997 34.2055Z" fill="#2A3659"/>
</g>
<defs>
<clipPath id="clip0_4701_7822">
<rect width="46" height="50" fill="white"/>
</clipPath>
</defs>
</svg>
