<svg width="20" height="20" viewBox="0 0 20 20" fill="none" xmlns="http://www.w3.org/2000/svg">
<path d="M20 10C20 10.1693 19.9328 10.3316 19.813 10.4513C19.6933 10.571 19.531 10.6383 19.3617 10.6383H10.6383V19.3617C10.6383 19.531 10.571 19.6933 10.4513 19.813C10.3316 19.9328 10.1693 20 10 20C9.83071 20 9.66836 19.9328 9.54866 19.813C9.42895 19.6933 9.3617 19.531 9.3617 19.3617V10.6383H0.638298C0.469011 10.6383 0.306657 10.571 0.186953 10.4513C0.067249 10.3316 0 10.1693 0 10C0 9.83071 0.067249 9.66836 0.186953 9.54866C0.306657 9.42895 0.469011 9.3617 0.638298 9.3617H9.3617V0.638298C9.3617 0.469011 9.42895 0.306657 9.54866 0.186953C9.66836 0.067249 9.83071 0 10 0C10.1693 0 10.3316 0.067249 10.4513 0.186953C10.571 0.306657 10.6383 0.469011 10.6383 0.638298V9.3617H19.3617C19.531 9.3617 19.6933 9.42895 19.813 9.54866C19.9328 9.66836 20 9.83071 20 10Z" fill="#2A3659"/>
</svg>
