<svg width="13" height="10" viewBox="0 0 13 10" fill="none" xmlns="http://www.w3.org/2000/svg">
<path d="M12.7422 5.33008C12.7422 5.43575 12.7002 5.53709 12.6255 5.61182C12.5508 5.68654 12.4494 5.72852 12.3438 5.72852H0.65625C0.550578 5.72852 0.449234 5.68654 0.374512 5.61182C0.299791 5.53709 0.257813 5.43575 0.257812 5.33008C0.257812 5.22441 0.299791 5.12306 0.374512 5.04834C0.449234 4.97362 0.550578 4.93164 0.65625 4.93164H12.3438C12.4494 4.93164 12.5508 4.97362 12.6255 5.04834C12.7002 5.12306 12.7422 5.22441 12.7422 5.33008ZM0.65625 1.47852H12.3438C12.4494 1.47852 12.5508 1.43654 12.6255 1.36182C12.7002 1.28709 12.7422 1.18575 12.7422 1.08008C12.7422 0.974406 12.7002 0.873062 12.6255 0.79834C12.5508 0.723619 12.4494 0.681641 12.3438 0.681641H0.65625C0.550578 0.681641 0.449234 0.723619 0.374512 0.79834C0.299791 0.873062 0.257813 0.974406 0.257812 1.08008C0.257813 1.18575 0.299791 1.28709 0.374512 1.36182C0.449234 1.43654 0.550578 1.47852 0.65625 1.47852ZM12.3438 9.18164H0.65625C0.550578 9.18164 0.449234 9.22362 0.374512 9.29834C0.299791 9.37306 0.257813 9.47441 0.257812 9.58008C0.257813 9.68575 0.299791 9.7871 0.374512 9.86182C0.449234 9.93654 0.550578 9.97852 0.65625 9.97852H12.3438C12.4494 9.97852 12.5508 9.93654 12.6255 9.86182C12.7002 9.7871 12.7422 9.68575 12.7422 9.58008C12.7422 9.47441 12.7002 9.37306 12.6255 9.29834C12.5508 9.22362 12.4494 9.18164 12.3438 9.18164Z" fill="white"/>
</svg>
