<svg width="20" height="16" viewBox="0 0 20 16" fill="none" xmlns="http://www.w3.org/2000/svg">
<path d="M19.7943 8.43105L12.1494 15.7436C12.0287 15.8512 11.8689 15.9098 11.7039 15.907C11.5388 15.9042 11.3814 15.8403 11.2646 15.7286C11.1479 15.617 11.081 15.4663 11.0781 15.3085C11.0752 15.1506 11.1365 14.9978 11.249 14.8823L17.8056 8.6098H0.656605C0.487643 8.6098 0.3256 8.5456 0.206126 8.43132C0.0866513 8.31704 0.0195313 8.16204 0.0195312 8.00043C0.0195312 7.83881 0.0866513 7.68381 0.206126 7.56953C0.3256 7.45525 0.487643 7.39105 0.656605 7.39105H17.8056L11.249 1.11855C11.1365 1.00303 11.0752 0.850245 11.0781 0.692375C11.081 0.534505 11.1479 0.38388 11.2646 0.272232C11.3814 0.160584 11.5388 0.0966304 11.7039 0.0938449C11.8689 0.0910595 12.0287 0.149659 12.1494 0.257299L19.7943 7.5698C19.9136 7.68406 19.9806 7.83894 19.9806 8.00043C19.9806 8.16191 19.9136 8.31679 19.7943 8.43105Z" fill="#2A3659"/>
</svg>
