<svg width="83" height="31" viewBox="0 0 83 31" fill="none" xmlns="http://www.w3.org/2000/svg">
<path fill-rule="evenodd" clip-rule="evenodd" d="M43.9302 29.9667C43.9302 31 44.8605 31 44.8605 31H81.1395C81.1395 31 82.0698 31 82.0698 29.9667C82.0698 28.9333 81.0952 28.9333 81.0952 28.9333H44.8605C44.8605 28.9333 43.9302 28.9333 43.9302 29.9667Z" fill="#2A3659"/>
<path d="M48.7143 22.4126L43 13.6109L46.1078 13.0665L49.6165 15.8794L59.2406 13.5202L51.1203 1.08887L55.0301 0L68.7644 11.1609L78.7895 8.71097C79.8588 8.43875 80.8279 8.62023 81.6967 9.2554C82.5656 9.89058 83 10.7375 83 11.7961C83 12.4615 82.7744 13.0513 82.3233 13.5655C81.8722 14.0797 81.2957 14.4275 80.594 14.609L48.7143 22.4126Z" fill="#2A3659"/>
<path d="M35.3587 22.6783L1.14286 15.4995V6.52613L4.38095 7.34189L5.89206 10.7681L16.254 12.9707V0L20.5714 0.815766L26.5079 15.0917L37.3016 17.3758C38.1291 17.539 38.7857 17.8721 39.2714 18.3751C39.7571 18.8782 40 19.4424 40 20.0678C40 20.9652 39.5143 21.6858 38.5429 22.2296C37.5714 22.7735 36.5101 22.923 35.3587 22.6783ZM1.14286 30.9991C1.14286 30.9991 0 30.9991 0 29.9302C0 28.8612 1.14286 28.8612 1.14286 28.8612L38.0571 28.9992C38.0571 28.9992 39.0857 28.9302 39.0857 29.9991C39.0857 31.0681 38.0571 30.9991 38.0571 30.9991H1.14286Z" fill="#2A3659"/>
</svg>
